Real Steel 2011 TS XviD - ILLUMINATI

Title: Real Steel 2011 TS XviD - ILLUMINATI
Format: Xvid
Subtitles: No
Sample Included: Yes


source:
Audio : SUCKIT   -  Many Thanx
Video: RELIZLAB source files  -  Many Thanx

imDb: http://www.imdb.com/title/tt0433035/

Plot:
Set in the near future, where robot boxing is a top sport,
a struggling promoter feels he's found a champion in a
discarded robot. During his hopeful rise to the top,
he discovers he has an 11-year-old son who wants
to know his father.

Info:

Video
ID                               : 0
Format                           : MPEG-4 Visual
Format profile                   : Advanced Simple@L5
Format settings, BVOP            : 2
Format settings, QPel            : No
Format settings, GMC             : No warppoints
Format settings, Matrix          : Default (H.263)
Codec ID                         : XVID
Codec ID/Hint                    : XviD
Duration                         : 1h 54mn
Bit rate                         : 1 349 Kbps
Width                            : 720 pixels
Height                           : 304 pixels
Display aspect ratio             : 2.35:1
Frame rate                       : 25.000 fps
Color space                      : YUV
Chroma subsampling               : 4:2:0
Bit depth                        : 8 bits
Scan type                        : Progressive
Compression mode                 : Lossy
Bits/(Pixel*Frame)               : 0.247
Stream size                      : 1.08 GiB (91%)

Audio
ID                               : 1
Format                           : MPEG Audio
Format version                   : Version 1
Format profile                   : Layer 3
Mode                             : Joint stereo
Mode extension                   : MS Stereo
Codec ID                         : 55
Codec ID/Hint                    : MP3
Duration                         : 1h 54mn
Bit rate mode                    : Constant
Bit rate                         : 128 Kbps
Channel(s)                       : 2 channels
Sampling rate                    : 44.1 KHz
Compression mode                 : Lossy
Stream size                      : 105 MiB (9%)
Alignment                        : Aligned on interleaves
Interleave, duration             : 40 ms (1.00 video frame)
Writing library                  : LAME3.98r
Encoding settings                : -m j -V 4 -q 2 -lowpass 17 -b 128

Release Notes:

Here we have a very nice release for all Real Steel 2011 TS 
XviD - ILLUMINATI Video is nice overall gotter say thanks to 
relizlab tho for the sourcefiles for us to use on
this release.

Onto audio which honestly must say sounds very nice which was 
given to use on behalf of SUCKiT so once again must say thanks 
for the audio as with out the audio the release wouldnt be 
what it is. There is a sample included check it out before 
you download and if u dont like the sample.....
go to the cinema and watch it or wait for bluray
 
http://shareimage.org/images/jmqy89ew6aqcylxjvebc.png
 
http://shareimage.org/images/0j0cfm0pagosngh8j0.png
 
http://shareimage.org/images/w0kkzjujpvb9ivqz30a.png

